<svg width="64" height="64" viewBox="0 0 48 48" xmlns="http://www.w3.org/2000/svg"><rect x="0" y="0" width="48" height="48" rx="8" fill="none"/><svg xmlns="http://www.w3.org/2000/svg" viewBox="0 0 48 48" fill="#00ccff" x="0" y="0" width="48" height="48"><g fill="none" stroke="#00ccff" stroke-linecap="round" stroke-linejoin="round" stroke-width="4"><path d="M12 11h5l2-4h10l2 4h5v16H12V11Z"/><circle cx="24" cy="18" r="4"/><path d="M24 38C12.954 38 4 33.523 4 28c0-1.422.594-2.775 1.664-4M24 38l-4-4m4 4l-4 4m12-4.832C39.064 35.625 44 32.1 44 28c0-1.422-.594-2.775-1.664-4"/></g></svg></svg>